<svg width="207" height="203" viewBox="0 0 207 203" fill="none" xmlns="http://www.w3.org/2000/svg">
<path fill-rule="evenodd" clip-rule="evenodd" d="M103.305 -1.48345e-06C46.2513 -1.48345e-06 -2.80842e-05 45.3685 -2.80842e-05 101.334C-2.80842e-05 157.299 46.2513 202.667 103.305 202.667C160.359 202.667 206.611 157.299 206.611 101.334C206.611 45.3685 160.359 -1.48345e-06 103.305 -1.48345e-06Z" fill="#BDBFC1"/>
<path fill-rule="evenodd" clip-rule="evenodd" d="M97.1847 42.5394C98.2672 43.4455 104.78 49.6681 104.931 50.6391C105.515 54.3945 104.264 63.3232 105.04 66.5811C112.892 67.4011 118.758 69.3417 124.761 73.9422C125.467 74.4828 126.162 75.1939 126.873 75.6153C129.494 73.1571 131.917 70.5906 134.522 68.0284C136.8 65.7884 137.495 65.8933 137.476 63.2592C137.457 60.7385 137.583 58.0092 137.442 55.5218C135.422 54.4283 133.884 54.9049 131.821 52.4412C130.478 50.8377 129.359 48.7993 129.404 45.9525C129.587 34.3584 146.48 33.7769 147.996 44.8428C148.746 50.3216 145.01 54.3043 140.749 55.2572C140.787 58.1202 140.748 61.0021 140.752 63.8679C140.759 67.3936 140.657 66.4935 137.75 69.4208C136.129 71.0526 130.093 76.6588 129.223 78.0795C130.388 79.4567 131.567 80.7932 132.59 82.4124C133.627 84.0526 134.42 85.5091 135.302 87.4325C137.28 91.7482 137.632 94.8812 138.27 99.8798C142.768 99.9026 148.17 100.142 152.568 99.894C153.866 99.821 155.521 97.5955 156.458 96.6729C157.551 95.597 159.081 94.2304 159.967 93.1161C157.24 89.1547 157.547 83.7731 160.786 80.6467C166.014 75.5987 175.461 78.197 176.615 86.009C177.336 90.8917 174.414 95.1651 169.787 96.3786C166.666 97.1975 164.849 96.4144 162.527 95.3797C160.884 96.293 155.407 102.885 154.356 103.129C153.009 103.442 140.656 103.166 138.262 103.164C137.545 109.776 136.115 115.331 132.572 120.629C132.064 121.389 131.538 122.164 130.967 122.885C130.36 123.651 129.622 124.332 129.209 125.13C131.743 127.677 134.23 130.166 136.815 132.731C139.011 134.91 138.932 135.722 141.557 135.698C143.353 135.681 147.71 135.916 149.178 135.596C151.542 123.759 167.229 125.479 167.792 136.139C168.23 144.44 158.877 148.746 152.955 144.289C150.054 142.105 150.724 141.208 149.296 139.021C146.75 138.82 143.562 138.969 140.95 138.976C137.532 138.985 138.371 138.898 135.438 135.942C132.881 133.364 129.563 129.71 126.905 127.442C125.166 128.345 123.303 130.932 117.531 133.482C113.381 135.316 109.986 136.002 105.043 136.479C104.647 138.072 104.904 148.01 104.931 150.398C104.947 151.86 105.397 151.878 106.14 152.622C106.763 153.245 107.243 153.721 107.87 154.354C109.098 155.594 110.233 156.667 111.433 157.922C113.701 156.985 116.815 154.577 121.482 157.019C122.299 157.447 123.692 158.42 124.1 158.886C131.68 167.556 120.788 179.384 111.731 172.889C110.301 171.863 108.921 170.249 108.246 167.812C107.396 164.744 108.187 162.869 109.225 160.559C108.989 160.109 109.245 160.513 108.886 160.051C107.85 158.72 106.547 157.637 105.355 156.458C104.664 155.774 104.109 155.213 103.426 154.519C102.845 153.927 101.747 153.221 101.655 152.224C101.302 148.377 102.263 139.529 101.563 136.457C93.6103 136.002 86.8153 133.109 80.888 128.405C80.4096 128.025 80.3285 127.788 79.8731 127.436C78.6937 128.102 72.1079 135.086 70.3692 136.797C69.4642 137.688 69.1104 137.605 69.12 139.378C69.1342 141.905 69.0206 144.627 69.1577 147.125C71.5586 148.287 72.5205 147.731 74.7792 150.189C79.7954 155.651 76.5187 165.349 68.4633 165.797C63.2455 166.087 59.2533 162.366 58.619 157.781C57.8873 152.498 61.5993 148.161 65.8524 147.38C65.923 144.595 65.8736 141.771 65.8667 138.981C65.8595 136.632 65.5596 136.957 66.8341 135.704C68.9195 133.652 76.7642 126.338 77.3982 124.933C72.1991 118.856 68.672 111.738 68.3893 103.249C66.6421 102.921 56.8693 103.125 54.4197 103.148C52.7011 103.164 51.5966 104.976 50.4597 106.098C49.219 107.322 48.1411 108.443 46.8873 109.668C47.6341 112.129 49.0492 112.692 48.5015 116.567C47.2155 125.667 35.1456 127.365 30.99 119.677C28.021 114.184 31.3545 107.413 37.254 106.131C38.595 105.839 39.9566 105.842 41.2583 106.135C42.7182 106.463 43.4364 107.085 44.5294 107.412L50.2935 101.656C50.9299 100.984 51.6414 99.9769 52.5934 99.8771C56.9706 99.4195 64.4092 100.525 68.3802 99.7995C68.6634 94.0587 70.2277 89.2864 72.7831 84.4622C73.4443 83.2144 74.9783 81.4798 75.3552 80.3676C69.2348 75.0869 71.9758 75.9925 64.2066 75.9939C62.97 75.9939 57.2907 76.1552 56.5502 75.9577C55.8251 75.7642 42.885 62.5102 40.902 60.5095C40.2016 59.803 39.6634 59.2764 38.974 58.5678C38.3824 57.9596 37.4012 57.1498 36.986 56.5687C39.9536 56.1962 48.9262 56.8266 52.8131 56.9744C55.2457 57.0661 54.9972 56.1303 56.3659 55.0121C59.3285 52.5902 58.5842 53.2921 58.501 46.36C58.4567 42.6827 58.3968 38.9354 58.4375 35.2622C59.4661 35.9799 59.653 36.3966 60.5577 37.1832C61.2153 37.7552 61.7218 38.3182 62.4832 39.1294L70.219 46.8599C71.1559 47.7694 77.6194 53.8156 77.8053 54.7269C78.1918 56.6211 77.8142 63.646 77.7929 66.3093C77.7692 69.3404 77.9703 68.5644 79.4096 70.4446L82.3228 73.5856C87.7579 69.718 93.1292 67.1856 101.562 66.5945C101.924 65.0697 101.752 54.686 101.679 52.4501C101.635 51.0955 101.124 51.0702 100.367 50.3013L94.9449 44.9075C93.018 45.3934 92.3643 47.0282 88.0683 46.5061C85.4921 46.1932 83.5218 44.8254 82.3712 43.4588C78.9187 39.3582 79.2619 33.0222 83.6688 29.79C85.0828 28.7529 86.6995 28.0947 88.499 27.9395C91.115 27.7143 93.5525 28.624 95.1253 29.8993C96.5636 31.0654 97.9817 32.8876 98.481 35.2704C99.2128 38.7626 98.1447 40.0439 97.1847 42.5394Z" fill="#243642"/>
<path fill-rule="evenodd" clip-rule="evenodd" d="M77.8869 82.6896C78.8787 83.6194 80.312 84.6539 81.3027 85.6578L84.7083 88.7026C84.296 89.6772 83.4827 90.7399 82.9218 91.9554C82.3301 93.2379 81.8882 94.4137 81.5143 95.8443C79.429 103.825 81.7936 111.766 87.5298 117.493C100.983 130.924 124.198 122.532 125.754 103.026C126.259 96.6884 124.12 91.9257 120.76 87.3172C117.999 83.5302 112.613 80.439 107.667 79.4473C97.7239 77.4527 91.9504 82.5202 90.4663 82.8836C89.9098 82.3796 89.6066 81.9129 88.9646 81.2544L85.9827 77.9278C85.637 77.5837 85.5372 77.3993 85.2405 77.0324L84.5157 76.0815C93.6108 68.7668 107.688 67.6777 118.997 74.0214C129.28 79.7899 135.506 91.1849 134.938 103.135C134.557 111.17 131.879 116.24 127.515 121.885C127.192 122.303 127.086 122.528 126.723 122.927L123.759 125.656C118.084 130.02 113.054 132.793 104.911 133.159C95.3831 133.587 87.8629 130 82.5987 125.474C73.8923 117.99 69.1779 105.276 72.8642 92.6781C73.9386 89.0064 75.913 85.0368 77.8869 82.6896Z" fill="#AAACAE"/>
<path fill-rule="evenodd" clip-rule="evenodd" d="M87.2319 90.9888L92.6431 95.686C93.3693 96.2458 93.7781 96.8441 94.5093 97.2638C93.886 100.543 92.4266 102.611 95.4396 107.138C95.9475 107.9 96.7146 108.738 97.5439 109.314C101.581 112.121 106.426 111.834 109.995 108.434C111.374 107.122 112.521 105.504 112.879 102.946C113.852 95.9829 107.6 89.7971 99.2196 92.7225L94.34 87.2658C93.6748 86.4821 93.3256 86.3385 92.7944 85.4652C96.0282 82.9228 102.112 81.6716 107.089 82.6855C109.457 83.1678 111.579 84.1322 113.354 85.1584C115.473 86.3829 116.751 87.7753 118.124 89.3329C128.037 100.58 120.343 119.623 104.725 120.703C89.8836 121.73 78.289 105.785 87.2319 90.9888Z" fill="#AAACAE"/>
<path fill-rule="evenodd" clip-rule="evenodd" d="M95.0259 93.2224C94.4815 93.0142 93.0675 91.6813 92.5244 91.122L75.7366 76.3586C75.2694 75.9867 75.0568 75.6733 74.583 75.2722L57.1384 58.8069C57.4417 58.5666 57.7053 58.3856 58.0111 58.0812C58.3891 57.7054 58.5091 57.4917 58.9041 57.1445C59.275 56.8185 59.5466 56.6455 59.9246 56.3266L60.9496 55.4663L69.7009 64.6757C70.4508 65.4508 71.0328 66.3469 71.7953 67.0676L82.4209 78.8285C83.6469 79.9945 87.1422 84.3511 88.7422 85.9424L95.0259 93.2224Z" fill="#AAACAE"/>
<path fill-rule="evenodd" clip-rule="evenodd" d="M159.434 130.775C167.542 132.222 165.228 144.088 157.372 142.689C149.607 141.306 151.638 129.385 159.434 130.775Z" fill="#AAACAE"/>
<path fill-rule="evenodd" clip-rule="evenodd" d="M118.421 159.428C121.4 160.013 123.961 162.995 123.19 166.625C121.531 174.434 109.673 171.922 111.324 164.131C111.938 161.232 114.789 158.715 118.421 159.428Z" fill="#AAACAE"/>
<path fill-rule="evenodd" clip-rule="evenodd" d="M168.95 81.5502C176.849 83.6938 173.283 95.4824 165.608 93.1416C158.184 90.8769 161.206 79.4492 168.95 81.5502Z" fill="#AAACAE"/>
<path fill-rule="evenodd" clip-rule="evenodd" d="M68.7219 150.483C76.7159 151.71 74.9269 163.608 66.9728 162.467C63.9164 162.028 61.3659 159.094 61.883 155.581C62.3244 152.581 65.2569 149.951 68.7219 150.483Z" fill="#AAACAE"/>
<path fill-rule="evenodd" clip-rule="evenodd" d="M40.6092 109.384C48.6265 111.475 45.4299 122.969 37.8391 121.162C34.9596 120.476 32.4738 117.496 33.3481 113.823C34.0011 111.081 37.1109 108.471 40.6092 109.384Z" fill="#AAACAE"/>
<path fill-rule="evenodd" clip-rule="evenodd" d="M91.0065 31.468C98.7887 33.7508 95.3317 45.245 87.6497 43.066C84.9919 42.3122 82.4531 39.3188 83.5345 35.5464C84.3247 32.7903 87.3942 30.4082 91.0065 31.468Z" fill="#AAACAE"/>
<path fill-rule="evenodd" clip-rule="evenodd" d="M139.578 40.1467C147.439 41.3525 145.865 53.2354 137.82 52.1243C134.774 51.7035 132.233 48.7963 132.746 45.2653C133.195 42.179 136.075 39.6094 139.578 40.1467Z" fill="#AAACAE"/>
<path fill-rule="evenodd" clip-rule="evenodd" d="M66.7253 72.7237C57.8541 72.5755 59.0061 74.0093 55.7127 70.7337L49.2992 64.3246C48.4062 63.4498 45.6386 60.8665 45.1271 60.0567C46.7785 59.9861 51.901 60.029 53.3947 60.2699C54.2544 60.4086 56.5584 62.9831 57.9513 64.2192L63.4039 69.3614C64.7005 70.8043 66.2692 71.8503 66.7253 72.7237Z" fill="#AAACAE"/>
<path fill-rule="evenodd" clip-rule="evenodd" d="M74.5191 59.5925L74.5013 64.8718C73.5152 64.3156 72.1177 62.4569 71.3537 61.6018L61.7944 51.526L61.7472 43.1381C62.939 44.0748 64.2234 45.6532 65.4259 46.7769L72.7436 54.1022C75.0849 56.4843 74.5086 55.224 74.5191 59.5925Z" fill="#AAACAE"/>
<path fill-rule="evenodd" clip-rule="evenodd" d="M101.866 95.3087C106.572 94.1915 110.868 98.6891 109.422 103.383C107.603 109.291 99.4372 109.33 97.3398 103.818C96.977 102.864 96.6712 101.328 97.0813 100.158C97.4523 99.0998 99.6374 102.411 101.235 103.183C103.432 104.243 105.733 102.406 105.176 100.048C104.875 98.7743 102.516 96.7913 102.03 96.0409C101.621 95.4109 101.848 95.354 101.866 95.3087Z" fill="#AAACAE"/>
<path fill-rule="evenodd" clip-rule="evenodd" d="M118.457 160.811C124.392 162.427 122.127 171.605 115.969 169.895C110.114 168.271 112.531 159.197 118.457 160.811Z" fill="#AAACAE"/>
<path fill-rule="evenodd" clip-rule="evenodd" d="M139.631 41.513C145.586 42.5938 144.118 51.8688 137.799 50.7435C132.006 49.7119 133.312 40.3665 139.631 41.513Z" fill="#AAACAE"/>
<path fill-rule="evenodd" clip-rule="evenodd" d="M69.0112 151.972C75.1824 153.544 72.696 162.558 66.627 161.009C60.9225 159.554 62.8334 150.399 69.0112 151.972Z" fill="#AAACAE"/>
<path fill-rule="evenodd" clip-rule="evenodd" d="M40.5095 110.72C46.3657 112.379 44.0828 121.397 38.0059 119.812C35.8788 119.257 33.9412 116.844 34.7127 113.998C35.2932 111.857 37.699 109.924 40.5095 110.72Z" fill="#AAACAE"/>
<path fill-rule="evenodd" clip-rule="evenodd" d="M159.371 132.101C161.711 132.542 163.594 134.825 163.06 137.693C162.635 139.981 160.439 141.839 157.544 141.354C151.697 140.376 153.125 130.923 159.371 132.101Z" fill="#AAACAE"/>
<path fill-rule="evenodd" clip-rule="evenodd" d="M168.811 82.9113C174.647 84.7107 171.981 93.6188 165.92 91.8243C163.705 91.1692 162.076 88.8179 162.857 85.9923C163.477 83.7493 165.993 82.0425 168.811 82.9113Z" fill="#AAACAE"/>
<path fill-rule="evenodd" clip-rule="evenodd" d="M90.1959 32.6545C92.5333 33.0407 94.552 35.3019 93.9523 38.1995C93.4741 40.5095 91.2044 42.4803 88.2916 41.8123C82.6722 40.5227 83.9532 31.6231 90.1959 32.6545Z" fill="#AAACAE"/>
</svg>
